# xmcd CD database file
# Copyright 1993-1996 (C) Ti Kan
#
# Track frame offsets:
#    150
#    10297
#    23700
#    33317
#    54552
#    68182
#    81977
#    87327
#    99975
#    117465
#    128385
#    136520
#    148592
#    162777
#    173997
#    184430
#    199250
#    211235
#    225035
#    241600
#    250532
#    264357
#    276867
#    291540
#    304590
#    316357
#
# Disc length: 4406 seconds
#
# Revision: 0
# Processed by: cddbd v1.4b41PL1 Copyright (c) Steve Scherf et al.
# Submitted via: MyCDplayer 2.1.6  (wjohn@fix.net)
#
DISCID=5e11341a
DTITLE=Fabulous Thunderbirds - Portfolio
DYEAR=1900
DGENRE=
TTITLE0=The Crawl
TTITLE1=She's Tuff
TTITLE2=That's Enough Of That Stuff
TTITLE3=Full Time Lover
TTITLE4=Sugar-Coated Love
TTITLE5=Wait On Time
TTITLE6=Los Fabulosos Thunderbirds
TTITLE7=I'm A Good Man
TTITLE8=Scratch My Back
TTITLE9=Walkin' To My Baby
TTITLE10=You Ain't Nothing But Fine
TTITLE11=Marked Deck
TTITLE12=Learn To Treat Me Right
TTITLE13=I Believe I'm In Love
TTITLE14=How Do You Spell Love
TTITLE15=Mathilda
TTITLE16=One's Too Many
TTITLE17=Dirty Work
TTITLE18=Tip On In
TTITLE19=Cherry Pink and Apple Blossom White
TTITLE20=Can't Tear It Up Enuff
TTITLE21=Give Me All Your Lovin'
TTITLE22=The Monkey
TTITLE23=My Babe
TTITLE24=Diddy Wah Diddy
TTITLE25=Roll, Roll, Roll
EXTD=
EXTT0=
EXTT1=
EXTT2=
EXTT3=
EXTT4=
EXTT5=
EXTT6=
EXTT7=
EXTT8=
EXTT9=
EXTT10=
EXTT11=
EXTT12=
EXTT13=
EXTT14=
EXTT15=
EXTT16=
EXTT17=
EXTT18=
EXTT19=
EXTT20=
EXTT21=
EXTT22=
EXTT23=
EXTT24=
EXTT25=
PLAYORDER=
